<svg xmlns="http://www.w3.org/2000/svg" width="18" height="450" viewBox="0 0 18 450"><g fill="none" fill-rule="evenodd"><path fill="#535C69" d="M5.065 4.682L2.377 1.994 1.01 3.362 3.696 6.05.99 8.757l1.368 1.37 2.708-2.71 2.7 2.703 1.37-1.368L6.433 6.05l2.682-2.682L7.748 2 5.065 4.682z"/><g fill="#535C69" transform="translate(0 28)"><rect width="12" height="2" rx="1"/><rect width="12" height="2" y="4" rx="1"/><rect width="12" height="2" y="8" rx="1"/></g><path fill="#525C68" d="M.667 61.415L0 64l2.444-.765c-.152-.417-.376-.797-.66-1.12-.318-.325-.7-.563-1.117-.7zm5.407-5.963l-4.78 5.213c.397.208.765.474 1.094.792.27.343.496.725.67 1.135l4.777-5.21c-.185-.447-.437-.857-.746-1.213-.296-.306-.64-.548-1.018-.715l.002-.003zm2.733-1.057c-.242-.26-.57-.403-.91-.395-.338.008-.66.165-.892.435l-.287.313c.382.177.732.428 1.033.74.304.348.55.75.732 1.187l.288-.314c.248-.252.39-.604.398-.974.006-.37-.125-.728-.364-.99h.003z"/><path fill="#212121" d="M6 85v-4H4v4H0v2h4v4h2v-4h4v-2H6z"/><path fill="#535C69" d="M10.238 120.754v-1.27H8.885c-.085-.592-.34-1.1-.677-1.607l.76-.762-.845-.846-.846.76c-.423-.338-.93-.592-1.523-.676V115h-1.27v1.354c-.592.084-1.1.338-1.607.677l-.762-.76-.846.845.76.762c-.338.508-.592 1.015-.676 1.608H0v1.27h1.354c.084.59.338 1.1.677 1.522l-.76.846.93.93.762-.76c.423.338 1.015.592 1.607.676v1.353h1.268v-1.354c.593-.085 1.1-.34 1.608-.678l.762.762.93-.93-.93-.847c.338-.423.507-1.015.677-1.608h1.353v.084zm-7.446-.592c0-1.27 1.016-2.37 2.37-2.37 1.27 0 2.37 1.016 2.37 2.37 0 1.27-1.017 2.37-2.37 2.37-1.354-.086-2.37-1.1-2.37-2.37z"/><path fill="#212121" d="M10.238 155.754v-1.27H8.885c-.085-.592-.34-1.1-.677-1.607l.76-.762-.845-.846-.846.76c-.423-.338-.93-.592-1.523-.676V150h-1.27v1.354c-.592.084-1.1.338-1.607.677l-.762-.76-.846.845.76.762c-.338.508-.592 1.015-.676 1.608H0v1.27h1.354c.084.59.338 1.1.677 1.522l-.76.846.93.93.762-.76c.423.338 1.015.592 1.607.676v1.353h1.268v-1.354c.593-.085 1.1-.34 1.608-.678l.762.762.93-.93-.93-.847c.338-.423.507-1.015.677-1.608h1.353v.084zm-7.446-.592c0-1.27 1.016-2.37 2.37-2.37 1.27 0 2.37 1.016 2.37 2.37 0 1.27-1.017 2.37-2.37 2.37-1.354-.086-2.37-1.1-2.37-2.37z"/><path fill="#535C69" d="M11.506 244.5c.184 0 .36-.074.49-.205.13-.13.204-.307.204-.49v-1.043c0-.383-.31-.694-.694-.694-.383 0-.694.31-.694.694v1.042c0 .184.073.36.203.49.13.132.307.205.49.205zm-7 .07c.406 0 .735-.33.735-.735v-1.1c0-.406-.328-.735-.734-.735-.406 0-.735.33-.735.735v1.1c0 .406.33.735.736.735zm9.652-1.037h-1.152v.5c0 .828-.67 1.5-1.5 1.5-.828 0-1.5-.672-1.5-1.5v-.5h-4v.5c0 .828-.67 1.5-1.5 1.5-.828 0-1.5-.672-1.5-1.5v-.5H1.854c-.517 0-1.012.214-1.363.595-.35.38-.526.89-.484 1.405v10c0 .552.448 1 1 1h14c.552 0 1-.448 1-1v-10c.02-1.054-.795-1.936-1.848-2zm-.152 11h-12v-7h12v7zM5.34 251.34c-.402.347-.757.742-1.06 1.177-.173.285-.282.606-.32.938h3.296v-.873H5.39c.054-.093.118-.18.19-.26.08-.09.268-.27.565-.543.22-.194.426-.403.615-.627.155-.19.282-.4.377-.626.08-.2.12-.415.12-.63.007-.37-.145-.725-.417-.974-.314-.275-.723-.415-1.14-.39-.394-.015-.78.104-1.1.336-.322.28-.512.685-.525 1.113l.93.094c-.004-.214.067-.422.2-.59.268-.232.664-.235.935-.007.12.13.182.306.17.483-.007.207-.077.408-.2.575-.234.29-.492.56-.77.808v-.005zm4.706 2.115h.91v-.987h.61v-.822h-.61v-3.11h-.79L8.04 251.65v.822h2.006v.987-.005zm-1.127-1.813l1.126-1.676v1.68H8.92v-.004z"/><g transform="translate(0 276)"><circle cx="9" cy="9" r="9" fill="#5E6674"/><path fill="#FFF" d="M10.174 8.973l2.284-2.283c.165-.166.165-.434 0-.6l-.6-.6c-.166-.165-.434-.165-.6 0L8.975 7.772 6.69 5.49c-.166-.166-.434-.166-.6 0l-.6.6c-.165.165-.165.433 0 .6L7.773 8.97 5.49 11.255c-.165.166-.165.434 0 .6l.6.6c.166.165.434.165.6 0l2.283-2.283 2.283 2.283c.166.165.434.165.6 0l.6-.6c.165-.166.165-.434 0-.6l-2.282-2.282z"/></g><g transform="translate(0 312)"><circle cx="9" cy="9" r="9" fill="#5E6674" opacity=".501"/><path fill="#FFF" d="M10.174 8.973l2.284-2.283c.165-.166.165-.434 0-.6l-.6-.6c-.166-.165-.434-.165-.6 0L8.975 7.772 6.69 5.49c-.166-.166-.434-.166-.6 0l-.6.6c-.165.165-.165.433 0 .6L7.773 8.97 5.49 11.255c-.165.166-.165.434 0 .6l.6.6c.166.165.434.165.6 0l2.283-2.283 2.283 2.283c.166.165.434.165.6 0l.6-.6c.165-.166.165-.434 0-.6l-2.282-2.282z"/></g><rect width="13" height="13" x=".5" y=".5" fill="#FFF" stroke="#C6CDD3" rx="2" transform="translate(0 346)"/><g transform="translate(0 369)"><rect width="13" height="13" x=".5" y="1.125" fill="#FFF" stroke="#259EC6" rx="2"/><path fill="#259EC6" d="M7.53 8.487l-3.775-3.6-1.25 1.368 4.94 5.01.075-.074.286.335 8.694-10.4L15.094 0 7.53 8.487z"/></g><path fill="#5B626A" d="M7.334 445.745h-4.34l-.01 2.53-3.26-3.27 3.28-3.28-.01 2.73h4.34c1.07 0 1.935-.866 1.935-1.935 0-1.07-.868-1.935-1.937-1.935h-1.11v-1.29h1.11c1.78 0 3.225 1.444 3.225 3.225 0 1.78-1.445 3.225-3.226 3.225h.002z"/><path fill="#535C68" d="M1.33 220.5c0-2.304 1.866-4.17 4.17-4.17s4.17 1.865 4.17 4.17c0 2.305-1.865 4.17-4.17 4.17-2.305 0-4.17-1.865-4.17-4.17m12.528 6.944l-3.816-3.817-.014-.008c.612-.89.972-1.96.972-3.12 0-3.038-2.463-5.5-5.5-5.5S0 217.462 0 220.5s2.463 5.5 5.5 5.5c1.158 0 2.232-.36 3.118-.972.004.004.005.01.01.014l3.816 3.817c.372.37.982.37 1.354 0l.06-.063c.372-.372.372-.982 0-1.354"/><path fill="#535C69" d="M6.003 407.967l3.99-3.992-1.027-1.028-3.992 3.992-4.004-4.006-1.025 1.025 4.005 4.003-3.993 3.993 1.03 1.028 3.99-3.992 4.005 4.004 1.025-1.025"/><path fill="#535C68" d="M11.466 189.964L8.73 187.23c-.195-.198-.48-.275-.75-.204-.267.07-.476.28-.55.547-.07.267.004.553.2.75l.56.558-4.39 3.276-.55-.55c-.303-.304-.794-.306-1.098-.004-.304.302-.306.793-.004 1.097l1.677 1.676-3.092 3.3c-.076.077-.076.2 0 .277.076.076.2.076.276 0l3.3-3.102 1.674 1.675c.304.304.797.304 1.1 0 .305-.304.305-.797 0-1.1l-.55-.55 3.274-4.39.565.563c.303.28.772.27 1.065-.02.293-.29.305-.76.028-1.064z"/></g></svg>