<svg xmlns="http://www.w3.org/2000/svg" width="580.1" height="126.5" viewBox="0 0 580.1 126.5"><style>.st0{fill-rule:evenodd;clip-rule:evenodd;fill:#fff}</style><path class="st0" d="M118.2 100.3c6.3-19.9 12.3-33.1 18.7-52.2 2.3-6.6 4.2-10.3 3.6-14.1-1.1-6.1-5.2-7.8-9.2-2.6-.6 1-1.3 1.8-1.8 2.7-2.4 4-4.5 8.2-7.3 13.1-8.4 14.5-14.7 33.6-19.1 40.1-5.7 9-13.6 7.3-16-1.8-6.4 4.7-14.1-.3-13.8-8.5.2-7.3 2.1-16.6 3.1-24.1 1.3-9.2 3.9-32.6 3.7-45.2-.2-1.6-.3-2.7-.6-3.9C78-.5 73.6-1 69.9 1.6 67.8 3 66 6.1 65.1 10.1c-1.6 5.8-2.1 12.1-2.9 18.4-.5 4.2-7.4 41.7-9 44.7-5 10.2-22.6-6.9-35.7-10.8C3 58.4-6 65.9 4.7 72.3c7.1 4.4 30.8 22.9 36.7 29.2 1.5 1.5 1.8 1.6 3.2 2.9 2.1 2.1 3.4 4 5.7 6 13.2 12.1 36.5 17.8 54.1 8.7 3.6-1.9 4.4-2.7 6.9-5.3 4.2-4.3 5.1-8.1 6.9-13.5z"/><path id="R_1_" class="st0" d="M368.4 71.8l5.8-28.1c8.4-.3 22.3-2.4 16.2 16-4.4 13.1-12.7 12.3-22 12.1zm-30.2 51.7h19.1l7.9-36.7c10.5-1.3 10.8 6 12.4 13.9l4.2 22.8h19.4l-4.7-23.3c-1.1-5.7-3.7-10.3-5.8-12.6-1.3-1.3-2.4-1.9-3.9-3.1 3.1-1.9 5.5-2.7 7.9-4.2 3.9-2.3 7.6-5.5 11.3-12 4.5-7.9 6.8-20 2.3-28.9-4.5-9.2-12-11-25.2-11-12.1 0-24.1-.2-36.2 0l-2.9 15h10.3l-16.1 80.1z"/><path id="к_1_" class="st0" d="M517.6 123.5h17l6-26.6c7.3-.6 7.9 3.2 9.5 11l3.1 15.7 17.6-.2-2.4-12c-2.6-11.3-1.6-13.4-8.2-20.5l20-29.1-18.2.2c-4.5 6.1-8.6 13.7-12.6 20h-5.7c-.3-5.3 9.4-43 10.8-53.5h-28.1l-2.7 15h10.2c-1.6 12.8-16.1 73.5-16.3 80z"/><path class="st0" d="M196.7 98.8h-15.8l-2.1 9.5H166l16.6-79.8-30.5.4-3.5 14.7h11.1l-17 79.9 48.8-.2"/><path id="о_1_" class="st0" d="M424.2 104.6c-1.1-3.9-.5-8.2 1-13.9 1.6-6.1 6.1-16.3 13.7-13.7 6 1.8 6.3 19.5 0 28.7-4.8 7.3-12.2 8.4-14.7-1.1zm-5.3 20.4c1.5.6 3.2 1 5.5 1.3 15.7 1.6 23.6-4.2 28.4-10.5 4.4-5.7 5.8-10 7.6-16.9 2.6-9.4 4-20.2-1.9-28.3-6.3-8.6-19.1-11.3-31.2-6.3-9.5 4-16.5 12.1-20 23.1-1.8 5.7-2.9 12.3-2.3 18.6.8 9 5.2 15.7 13.9 19z"/><path class="st0" d="M220.6 92.3c1-6.6 4.2-14.1 10.2-15.3 4.8-1 6.7 2.5 5.7 6.6-.4 1.8-1.1 3.6-2.7 5.2-3 2.9-7.7 3.7-13.2 3.5zM206.5 120c10.2 12.3 30.2 3.9 39.1.8l-2.9-12.9c-7.9 2.7-19.5 8.6-22.6-3.4 13.1 1.1 24.5-3.1 31-14.4 16.2-28.4-24.1-38.6-41.3-15.8-6 7.9-9 16.3-9.2 27.3 0-.1-.9 10.1 5.9 18.4zm89.2-31.9c2.6 10.2 17.4 11.6 19.2 16.3 3.4 8.6-12.4 9.7-21.5 2.4l-6.1 12.9c4.7 6 19.2 7.6 28.4 5.7 11.1-2.3 17.4-11.3 17.9-22.3.3-5-.8-7.6-5.2-11.6-3.9-3.4-8.4-4.4-12-6.8-1.9-1.3-2.6-1.6-2.4-4 .3-4.4 3.9-4.2 9.2-4l-1.1 6.6 12.4-.2 8.1-24.9-15.2.2-.8 3.7c-7.6-.5-16.4-.7-22.4 4 0 .1-11.7 9.6-8.5 22z"/><path id="C_1_" class="st0" d="M473.7 121.4c1.6 1.5 4 2.9 7.6 3.9 4 1.3 8.7 1.5 13.2.8 2.9-.3 5-1 6.9-1.5 2.4-.6 4.4-1.5 6.8-2.4 1-.5 2.1-.8 3.2-1.5l-2.9-12.8c-5.5 1.8-25.2 11.8-23.1-11 1.3-13.1 5.3-21.8 19.9-20l-1.1 6.3 12.3-.2 8.2-24.9h-15l-1.1 4.4c-17.3-1.8-26.6 3.1-33.9 12.9-6 7.9-8.7 19.2-7.9 30.7.4 5.8 2.3 11.4 6.9 15.3z"/><path class="st0" d="M256.4 123.5h16.7l9.8-47 9.4.2 4.7-14.6h-10.8l3.7-18.5H275l-5.5 18.5h-8.9l-2.9 14.4h7.6zM87.8 78.3c3.2-6.9 5.5-17.1 6.3-23.4.8-6.1-1-8.7-7.4-9.7-1.8-.3-3.6-.2-5.2 1.1-2.4 1.8-2.1 5-3.1 10.3-1.6 11-5 22.8-.3 26.6 5.1 4.1 8-.9 9.7-4.9zm13.6 6.4c5.2-8.6 11.6-23.6 8.4-28.6-2.7-4-10.3-6.1-12.6.3-1.8 5-3.4 12.8-4.7 17.1-1.5 4.7-3.7 11-1.8 14.2 3.4 5.9 8.4.6 10.7-3zm195.1-31.3h12.1l8.7-24.9h-15.6z"/></svg>