<svg xmlns="http://www.w3.org/2000/svg" viewBox="0 0 433.31 160.26"><title>логотип</title><path d="M89.56 13.56q-4.66 8.55-9.16 17.27c3-3.47 6.11-6.76 9.25-9.82 7-7 11.31-10.48 12.24-9.84l8.49 5.95-.66.38a87.1 87.1 0 0 0-11.52 8.31 124.82 124.82 0 0 0-12.9 12.62 172.34 172.34 0 0 0-10.92 13.4 108.82 108.82 0 0 0-7.78 12.44 59.35 59.35 0 0 0-4.91 11.89 39.68 39.68 0 0 0-1.7 11.2 26.14 26.14 0 0 0 2.36 11.58 16.19 16.19 0 0 0 6.95 7.42 20.65 20.65 0 0 0 8.16 2.42c-1.53 5.59-3 11.36-3 11.34l-10-7v.06l-12.81-9q-2.47 3.86-4.88 7.56c-4.91 7.81-6.73 10.42-7 10.26l-15.21-10.64c-.35-.25 3-6.95 4.71-11.38A843.91 843.91 0 0 1 74.41 2.96l15.14 10.6z" fill="#328284" fill-rule="evenodd"/><path d="M133.19 14.36a10.77 10.77 0 0 1 1.63 2.72 16.94 16.94 0 0 1 1.1 6.28c0 4.43-1.52 9.4-4.55 14.86a88.08 88.08 0 0 1-11.4 15.83 98.17 98.17 0 0 1-13 12.5c-4.12 3.21-7.09 4.85-8.91 4.85a4.89 4.89 0 0 1-3.4-1.46 4.44 4.44 0 0 1-1.58-3.27c0-2.3 1.21-5 3.58-8.19a72.77 72.77 0 0 1 7.82-8.79c2.85-2.67 4.49-4 5.09-4a.32.32 0 0 1 .37.36 4.69 4.69 0 0 1-.61 1.82 5.37 5.37 0 0 0-.61 1.58c0 .36.12.48.36.48.67 0 2.61-1.76 5.76-5.4a76.29 76.29 0 0 0 8.79-11.89c2.67-4.31 4-7.82 4-10.61a4.05 4.05 0 0 0-.73-2.61 2.63 2.63 0 0 0-2.18-.91c-2.79 0-7 2.24-12.61 6.67a124 124 0 0 0-17.25 17.18 121.34 121.34 0 0 0-14.8 21.47c-3.94 7.34-5.88 13.83-5.88 19.47a21.21 21.21 0 0 0 1.4 8.13 11.31 11.31 0 0 0 4.31 5 12.72 12.72 0 0 0 6.79 1.76c5.7 0 12.19-2.24 19.47-6.67s15.28-11 24-19.77v3.88a197.9 197.9 0 0 1-18.25 18.26 77.56 77.56 0 0 1-16.25 11.1 43.67 43.67 0 0 1-5.85 2.37v.09l15.14 10.6s.78-2.59 3.24-10.24l.42-1.25c7 4.88 12.92 3.68 18.11-1.35l4.78 3.34 32.87-66.61-10-7c2.89-9.83 5.67-18.33 8.55-23.64.2-.4.25-.62.16-.69L147.93.01c-.72-.5-10.14 9.35-14.74 14.35z" fill="#328284" fill-rule="evenodd"/><path d="M87.78 13.56q-4.66 8.55-9.16 17.27c3-3.47 6.11-6.76 9.25-9.82 7-7 11.31-10.48 12.24-9.84l8.49 5.95-.66.38a87.1 87.1 0 0 0-11.52 8.31 124.82 124.82 0 0 0-12.86 12.61 172.34 172.34 0 0 0-10.92 13.4 108.82 108.82 0 0 0-7.82 12.43 59.35 59.35 0 0 0-4.91 11.89 39.68 39.68 0 0 0-1.69 11.22 26.14 26.14 0 0 0 2.36 11.58 16.19 16.19 0 0 0 6.92 7.42 20.65 20.65 0 0 0 8.16 2.42c-1.53 5.59-3 11.36-3 11.34l-10-7v.06l-12.81-9q-2.47 3.86-4.88 7.56c-4.91 7.81-6.73 10.42-7 10.26l-15.18-10.64c-.35-.25 3-6.95 4.71-11.38A843.91 843.91 0 0 1 72.64 2.96l15.14 10.6z" fill="#328284" fill-rule="evenodd"/><path d="M131.42 14.36a10.77 10.77 0 0 1 1.63 2.72 16.94 16.94 0 0 1 1.09 6.28c0 4.43-1.52 9.4-4.55 14.86a88.08 88.08 0 0 1-11.4 15.83 98.17 98.17 0 0 1-13 12.5c-4.12 3.21-7.09 4.85-8.91 4.85a4.89 4.89 0 0 1-3.4-1.46 4.44 4.44 0 0 1-1.58-3.24c0-2.3 1.21-5 3.58-8.19a72.77 72.77 0 0 1 7.82-8.79c2.85-2.67 4.49-4 5.09-4a.32.32 0 0 1 .37.36 4.69 4.69 0 0 1-.61 1.82 5.37 5.37 0 0 0-.61 1.58c0 .36.12.48.36.48.67 0 2.61-1.76 5.76-5.4a76.29 76.29 0 0 0 8.79-11.89c2.67-4.31 4-7.82 4-10.61a4.05 4.05 0 0 0-.73-2.61 2.63 2.63 0 0 0-2.18-.91c-2.79 0-7 2.24-12.61 6.67a124 124 0 0 0-17.24 17.15A121.34 121.34 0 0 0 78.3 63.85c-4 7.33-5.89 13.82-5.89 19.51a21.21 21.21 0 0 0 1.4 8.13 11.31 11.31 0 0 0 4.31 5 12.72 12.72 0 0 0 6.79 1.76c5.7 0 12.19-2.24 19.47-6.67s15.28-11 24-19.77v3.88a197.9 197.9 0 0 1-18.25 18.26 77.56 77.56 0 0 1-16.25 11.1 43.67 43.67 0 0 1-5.79 2.32v.09l15.14 10.6s.78-2.59 3.24-10.24l.42-1.25c7 4.88 12.92 3.68 18.11-1.35l4.78 3.34 32.87-66.61-10-7c2.89-9.83 5.67-18.33 8.55-23.64.2-.4.25-.62.16-.69L146.22.02c-.78-.51-10.21 9.34-14.8 14.34zM2.76 68.06l20.7 18a13.56 13.56 0 0 0 2.15 1.65 2 2 0 0 0 1.23.08 2 2 0 0 0 1.09-.52 16.41 16.41 0 0 0 1.53-2.59l.63.57-6.59 14.4-.63-.56a11.32 11.32 0 0 0 1-3.15 3.36 3.36 0 0 0-.41-1.85 12.31 12.31 0 0 0-2.49-2.61L8.7 80.83c-1.88-1.65-2.87-2.51-3-2.6a5 5 0 0 0-1-.61 2.21 2.21 0 0 0-1.78-.1 2.56 2.56 0 0 0-1.31 1.41c-.16.35-.43 1.07-.79 2.17l-.85-.18 2.35-12 .41-.89zm31.54-5.48a25.29 25.29 0 0 0-4.7-8.22 21.66 21.66 0 0 0-7.69-5.9q-4.13-1.89-7.31-.91a7.45 7.45 0 0 0-4.68 4.27 9.78 9.78 0 0 0 .72 9.65 14.7 14.7 0 0 0 6.61 5.89 8 8 0 0 0 5.78.71 5.65 5.65 0 0 0 3.61-3.17 12 12 0 0 0 .89-3.7 25.78 25.78 0 0 1 5.21 8.44 15.7 15.7 0 0 1 .72 7.56l.86.39A20.43 20.43 0 0 0 35.66 71a24.29 24.29 0 0 0-1.36-8.42zm-8.58-.74a2.18 2.18 0 0 1-1.55 1.23 4.3 4.3 0 0 1-3-.31 29 29 0 0 1-7-5 9.89 9.89 0 0 1-2.95-3.81 2.34 2.34 0 0 1 .08-1.69 2.42 2.42 0 0 1 1.58-1.36 3.86 3.86 0 0 1 2.68.39 22.32 22.32 0 0 1 4.13 2.63 69.07 69.07 0 0 1 6.57 5.91 7.93 7.93 0 0 1-.55 2zm18.43-20.8a25.29 25.29 0 0 0-4.7-8.2 21.67 21.67 0 0 0-7.69-5.9q-4.13-1.89-7.31-.91a7.45 7.45 0 0 0-4.68 4.27 9.78 9.78 0 0 0 .72 9.65 14.69 14.69 0 0 0 6.61 5.91 8 8 0 0 0 5.78.71 5.65 5.65 0 0 0 3.61-3.21 12.05 12.05 0 0 0 .89-3.7 25.81 25.81 0 0 1 5.21 8.44 15.7 15.7 0 0 1 .71 7.6l.86.39a20.43 20.43 0 0 0 1.34-6.59 24.3 24.3 0 0 0-1.35-8.46zm-8.59-.74a2.18 2.18 0 0 1-1.55 1.23 4.3 4.3 0 0 1-3-.31 29 29 0 0 1-7-5 9.9 9.9 0 0 1-2.95-3.81 2.34 2.34 0 0 1 .08-1.73 2.42 2.42 0 0 1 1.58-1.32 3.87 3.87 0 0 1 2.68.4 22.27 22.27 0 0 1 4.13 2.6 69 69 0 0 1 6.57 5.91 7.94 7.94 0 0 1-.53 2.03zm22.32-21.24a9.82 9.82 0 0 0-5.32-5.63 8 8 0 0 0-3.26-.76 31.74 31.74 0 0 0-5.93 1 14.62 14.62 0 0 0 0-3.59A8.59 8.59 0 0 0 42 6.69a6.53 6.53 0 0 0-2.7-2.25 6.35 6.35 0 0 0-5.22-.08 7.93 7.93 0 0 0-4.16 4.35 8.49 8.49 0 0 0-.46 6.7 8 8 0 0 0 4.39 4.62 9.75 9.75 0 0 0 3.55.82 16.23 16.23 0 0 0 4.35-.41 17.11 17.11 0 0 0 .25 4.52 10.83 10.83 0 0 0 1.82 4.1 8.33 8.33 0 0 0 3.27 2.6 7.08 7.08 0 0 0 5.85.17 8.82 8.82 0 0 0 4.56-4.82 9.93 9.93 0 0 0 .38-7.95zm-20-4.38a8 8 0 0 1-3.08-.74 7.24 7.24 0 0 1-3.5-2.83 2.2 2.2 0 0 1 0-2.09 2.06 2.06 0 0 1 1.55-1.12 5.44 5.44 0 0 1 3.21.69 16.13 16.13 0 0 1 5 3.23 4.39 4.39 0 0 1 1 2.24 16.08 16.08 0 0 1-4.21.62zm18.11 12a2.75 2.75 0 0 1-1.87 1.59 5 5 0 0 1-3.27-.56 18.59 18.59 0 0 1-4.23-2.64 13.57 13.57 0 0 1-2.64-2.71 8.51 8.51 0 0 1-.95-2.27 19.63 19.63 0 0 1 5.27-1.08 8.29 8.29 0 0 1 3.61.78 7.79 7.79 0 0 1 3.9 3.66 3.59 3.59 0 0 1 .15 3.26zm161.95 12.68l-4.3 18.85h-1.58l-.18-4.72a16.42 16.42 0 0 0-1-4.59 9.28 9.28 0 0 0-2.31-3.54 10.75 10.75 0 0 0-3.93-2.32 15.76 15.76 0 0 0-5.26-.83 22.31 22.31 0 0 0-13.5 4.21 35.25 35.25 0 0 0-11.58 15.16 41.26 41.26 0 0 0-3.45 16.34q0 8.44 5 13.47t12.95 5a21.35 21.35 0 0 0 10.69-2.66 28.44 28.44 0 0 0 8.72-8.21h2a33.46 33.46 0 0 1-10.46 11 28.34 28.34 0 0 1-26.36.56 20.13 20.13 0 0 1-8.34-8.37 24.35 24.35 0 0 1-2.88-11.62A38.71 38.71 0 0 1 181.3 44.5a35.38 35.38 0 0 1 17.86-5.14 26.62 26.62 0 0 1 9.5 2 11.19 11.19 0 0 0 3.33.86 3.56 3.56 0 0 0 1.8-.44 12.81 12.81 0 0 0 2.57-2.42zm39.1 21.65h-6.47l-1 3.59q-2.85 9.31-5.39 13.59a83.26 83.26 0 0 1-6.49 9.15c-2.62 3.24-4.72 5.35-6.28 6.28a8.06 8.06 0 0 1-3.83 1.42 2.1 2.1 0 0 1-1.48-.5 1.61 1.61 0 0 1-.56-1.3q0-1.49 1.93-7.06l4.68-13.66c1.33-3.92 2-6.65 2-8.17a4.43 4.43 0 0 0-1.1-3.1 3.6 3.6 0 0 0-2.81-1.21 10.62 10.62 0 0 0-5.48 1.84 25.14 25.14 0 0 0-7.46 7.32l1.33.95a36.42 36.42 0 0 1 4.9-4.79 4.2 4.2 0 0 1 2.15-.64 1.48 1.48 0 0 1 .94.37 1.12 1.12 0 0 1 .44.88 27.16 27.16 0 0 1-1.64 5.92l-4.46 13.22q-2.26 6.64-2.25 9.85a4.52 4.52 0 0 0 1.4 3.42 4.67 4.67 0 0 0 3.4 1.36q4.3 0 9.38-4.41t12.64-16.32c-2.19 7.07-3.54 11.6-4 13.56a18.13 18.13 0 0 0-.55 3.83 3.37 3.37 0 0 0 .86 2.41 3 3 0 0 0 2.32.93 6.92 6.92 0 0 0 4-1.48 24.15 24.15 0 0 0 6.08-7.47l-1.29-1a36.24 36.24 0 0 1-3.39 5.2 1.91 1.91 0 0 1-1.24.6.65.65 0 0 1-.57-.32 1.94 1.94 0 0 1-.2-1 36.94 36.94 0 0 1 1.74-7.31l7.82-26zm11.92 0h24.94l-8.36 29a23.58 23.58 0 0 0-.94 4.19c0 .77.35 1.17 1 1.17a2.7 2.7 0 0 0 1.91-1.2 41.33 41.33 0 0 0 3.05-4.5l1.49.94a36.72 36.72 0 0 1-5.65 6.94 7.74 7.74 0 0 1-5.23 2.21q-3.38 0-3.38-3.73a36.74 36.74 0 0 1 1.71-7.83l7.07-24.65h-5.38a13.05 13.05 0 0 0-4.09.38 3.42 3.42 0 0 0-1.48 1.88 67.91 67.91 0 0 0-2.21 7.36q-4.52 16.77-7.53 21.67c-2 3.27-4.32 4.91-7 4.91-2.82 0-4.24-1.1-4.24-3.3a3.43 3.43 0 0 1 .83-2.32 2.79 2.79 0 0 1 2.19-.95 4.38 4.38 0 0 1 2.69 1.13 2.69 2.69 0 0 0 1.62.72c.86 0 1.78-.73 2.8-2.21s2.62-6 4.82-13.73 3.32-12.11 3.32-13.28c0-1.83-1.49-2.86-4.5-3.13l.42-1.67zm40.68-.97l-12.46 3.07.35 1.58q2.3-.26 3.2-.26a5 5 0 0 1 4 1.45q1.18 1.45 1.78 8.15l2.4 27a73 73 0 0 1-6.06 7 31.65 31.65 0 0 1-5.46 4.66 2.13 2.13 0 0 1-.91.44.71.71 0 0 1-.51-.22 4 4 0 0 1-.74-1.34 3 3 0 0 0-.75-1.21 2.53 2.53 0 0 0-1.42-.38 4.73 4.73 0 0 0-4.4 4.38 3.14 3.14 0 0 0 1 2.32 3.19 3.19 0 0 0 2.32 1 10.82 10.82 0 0 0 5.35-1.9q3.11-1.91 9.57-9.23 9.34-10.63 16-19.62a123.5 123.5 0 0 0 9-13.34 16.76 16.76 0 0 0 2.32-7.73 6.38 6.38 0 0 0-1.33-4.3 4.1 4.1 0 0 0-3.21-1.56 3.4 3.4 0 0 0-2.57 1.07 3.9 3.9 0 0 0-1 2.82 4 4 0 0 0 .83 2.51 4.21 4.21 0 0 0 2.1 1.49 5.16 5.16 0 0 1 1.56.7 1.11 1.11 0 0 1 .29.77 4 4 0 0 1-.26 1.42 29.58 29.58 0 0 1-2.57 4.78c-2.34 3.74-4.28 6.69-5.86 8.85q-4.91 6.68-7.49 9.76l-1.87-21a63.59 63.59 0 0 0-1.11-8.49 18.19 18.19 0 0 0-2-4.65zm50.77 20.08h-14.26l.61-2.1h14.07a23.51 23.51 0 0 0 .31-3.59 14.86 14.86 0 0 0-2.34-8.61 7.63 7.63 0 0 0-6.68-3.4q-7.82 0-12.29 9.64h-1.53l3.33-12h1.49a2.17 2.17 0 0 0 2.28 1.67 8.12 8.12 0 0 0 2.19-.45 21.16 21.16 0 0 1 6.71-1.24 13.59 13.59 0 0 1 9.94 4q4.05 4 4.06 11.25a26.11 26.11 0 0 1-6.2 16.79q-6.18 7.67-14.29 7.67a13.05 13.05 0 0 1-8.65-3 16.19 16.19 0 0 1-5.14-7.83l1.49-.61q4 8.15 10.48 8.15 10.15 0 14.39-16.31zm29.58-20.08l-5.54 19.32a84.14 84.14 0 0 1 6.5-10.24 31.67 31.67 0 0 1 8.12-7.71 9.46 9.46 0 0 1 4.88-1.37 5 5 0 0 1 3.65 1.43 4.9 4.9 0 0 1 1.45 3.65 19 19 0 0 1-1.05 5.41l-3.27 10.74q7.39-13 14-18.32a11.64 11.64 0 0 1 7.23-2.91 4.39 4.39 0 0 1 3.4 1.48 6.65 6.65 0 0 1 1.34 4.57 17.17 17.17 0 0 1-.88 5.2l-5.35 16.47a48.84 48.84 0 0 0-1.75 6 1.44 1.44 0 0 0 .35 1 .77.77 0 0 0 .61.29 3 3 0 0 0 1.36-.77 21.07 21.07 0 0 0 4.12-5l1.42.91a34.15 34.15 0 0 1-3.64 4.62 19.13 19.13 0 0 1-4.46 3.93 7.1 7.1 0 0 1-3.42 1 3.19 3.19 0 0 1-2.4-1 3.46 3.46 0 0 1-1-2.48c0-1.37.67-4.12 2-8.27l4.5-13.75c1-3.17 1.56-4.92 1.64-5.26a9.94 9.94 0 0 0 .2-1.62 2.52 2.52 0 0 0-.51-1.67 1.68 1.68 0 0 0-1.24-.6 6.53 6.53 0 0 0-4.12 1.84q-6.38 5.44-11.92 15.25a88.1 88.1 0 0 0-6.85 16.57h-6.49l7.8-25.88a24.78 24.78 0 0 0 1.27-5.61 2.54 2.54 0 0 0-.48-1.71 1.52 1.52 0 0 0-1.18-.56 5.8 5.8 0 0 0-3.08 1q-2.63 1.66-6.79 7.14a56.51 56.51 0 0 0-6.43 10.48q-1.12 2.37-5.23 15.11h-6.3l8-27.7 1-3.59a4 4 0 0 0 .31-1.21 2.27 2.27 0 0 0-.86-1.71 3.28 3.28 0 0 0-2.21-.74 25.55 25.55 0 0 0-3.1.51l-.37-1.58zM23.38 138.93h13.74v15.46h-4.08v-12.15h-5.58v12.15h-4.08v-15.46zm31.26 1.78a5.89 5.89 0 0 0-4.57-2.12 5.66 5.66 0 0 0-4.82 2.6v-2.27h-3.81v21.34h4.08v-7.74a7.82 7.82 0 0 0 2.19 1.74 5.18 5.18 0 0 0 2.32.51 5.89 5.89 0 0 0 4.59-2.15 8.83 8.83 0 0 0 1.89-6 8.55 8.55 0 0 0-1.87-5.91zm-3.26 9.65a3 3 0 0 1-2.37 1.15 3.15 3.15 0 0 1-2.51-1.25 6 6 0 0 1-1-3.86 5.18 5.18 0 0 1 1-3.44 3.12 3.12 0 0 1 2.48-1.16 3 3 0 0 1 2.32 1.2 5.63 5.63 0 0 1 1 3.63 5.92 5.92 0 0 1-.92 3.73zm21.14-9.48a7.71 7.71 0 0 0-5.75-2.28 8.41 8.41 0 0 0-4.11 1 6.89 6.89 0 0 0-2.85 2.92 8.36 8.36 0 0 0-1 3.95 9.39 9.39 0 0 0 1 4.52 6.6 6.6 0 0 0 2.93 2.82 9 9 0 0 0 4.05 1 7.64 7.64 0 0 0 5.7-2.31 8 8 0 0 0 2.26-5.83 7.89 7.89 0 0 0-2.23-5.79zm-3 9.34a3.42 3.42 0 0 1-2.68 1.23 3.46 3.46 0 0 1-2.69-1.23 6.26 6.26 0 0 1 0-7.05 3.46 3.46 0 0 1 2.69-1.23 3.42 3.42 0 0 1 2.68 1.23 5.12 5.12 0 0 1 1.08 3.5 5.22 5.22 0 0 1-1.13 3.55zm29.55-9.18a4.69 4.69 0 0 0-4.05-2.41 4.74 4.74 0 0 0-2.35.57 5.05 5.05 0 0 0-1.77 1.71v-7.86h-4.08v7.75a5.62 5.62 0 0 0-1.75-1.66 4.28 4.28 0 0 0-2.15-.55 5.24 5.24 0 0 0-4 2.27 8.81 8.81 0 0 0-1.86 5.76 9.91 9.91 0 0 0 1.62 5.83 4.87 4.87 0 0 0 4.12 2.32 4.43 4.43 0 0 0 2.14-.55 6.45 6.45 0 0 0 1.89-1.62v7.65h4.08v-7.65a5.91 5.91 0 0 0 1.77 1.62 4.09 4.09 0 0 0 2 .55 5.14 5.14 0 0 0 4.17-2.31 9.06 9.06 0 0 0 1.76-5.67 10.31 10.31 0 0 0-1.54-5.75zm-13 9.26a2.36 2.36 0 0 1-2 1.36 2.28 2.28 0 0 1-2-1.36 7.19 7.19 0 0 1-.78-3.61 6.77 6.77 0 0 1 .84-3.6 2.38 2.38 0 0 1 2-1.37 2.45 2.45 0 0 1 1.86 1.15 6.1 6.1 0 0 1 .89 3.71 7.11 7.11 0 0 1-.86 3.71zm9.6-.1a2.11 2.11 0 0 1-3.94.17 6.36 6.36 0 0 1-.83-3.49 7.71 7.71 0 0 1 .78-3.66 2.31 2.31 0 0 1 2-1.46 2.27 2.27 0 0 1 2 1.45 7.68 7.68 0 0 1 .75 3.56 6.83 6.83 0 0 1-.81 3.43zm15.93.99a2.48 2.48 0 0 1-1.61.52 3.07 3.07 0 0 1-2.34-1 4.15 4.15 0 0 1-1-2.83h10.22q.09-4.71-1.9-7a6.86 6.86 0 0 0-5.44-2.28 6.59 6.59 0 0 0-5.08 2.18 8.56 8.56 0 0 0-2 6 8.89 8.89 0 0 0 1.53 5.34q1.93 2.64 6 2.64a7.31 7.31 0 0 0 4.24-1.17 6.71 6.71 0 0 0 2.48-3.42l-4.08-.69a3.22 3.22 0 0 1-1.02 1.71zm-4-8.48a2.83 2.83 0 0 1 2.21-1 2.79 2.79 0 0 1 2.12.93 4 4 0 0 1 .91 2.71h-6.09a3.8 3.8 0 0 1 .84-2.64zm25.7.8l-4 .72a2.89 2.89 0 0 0-.92-1.81 2.81 2.81 0 0 0-1.87-.61 3.05 3.05 0 0 0-2.44 1.06 5.43 5.43 0 0 0-.91 3.54 6.28 6.28 0 0 0 .92 3.89 3 3 0 0 0 2.47 1.14 2.74 2.74 0 0 0 1.9-.67 4 4 0 0 0 1-2.28l4 .69a7.15 7.15 0 0 1-2.4 4.19 7.41 7.41 0 0 1-4.76 1.42 7.07 7.07 0 0 1-5.4-2.14 9.78 9.78 0 0 1 0-11.91 7.16 7.16 0 0 1 5.47-2.14 7.47 7.47 0 0 1 4.49 1.22 6.74 6.74 0 0 1 2.39 3.7zm16.58 0l-4 .72a2.89 2.89 0 0 0-.92-1.81 2.81 2.81 0 0 0-1.87-.61 3.05 3.05 0 0 0-2.44 1.06 5.43 5.43 0 0 0-.91 3.54 6.28 6.28 0 0 0 .92 3.89 3 3 0 0 0 2.47 1.14 2.74 2.74 0 0 0 1.9-.67 4 4 0 0 0 1-2.28l4 .69a7.15 7.15 0 0 1-2.4 4.19 7.41 7.41 0 0 1-4.76 1.42 7.07 7.07 0 0 1-5.4-2.14 9.78 9.78 0 0 1 0-11.91 7.16 7.16 0 0 1 5.47-2.14 7.47 7.47 0 0 1 4.49 1.22 6.74 6.74 0 0 1 2.39 3.7zm2.98-4.58h3.93v9.72l6.29-9.72h4.03v15.46h-3.94v-9.86l-6.38 9.86h-3.93v-15.46zm31.19 1.95a7.71 7.71 0 0 0-5.75-2.28 8.41 8.41 0 0 0-4.11 1 6.89 6.89 0 0 0-2.85 2.92 8.36 8.36 0 0 0-1 3.95 9.39 9.39 0 0 0 1 4.52 6.6 6.6 0 0 0 2.93 2.82 9 9 0 0 0 4.05 1 7.64 7.64 0 0 0 5.7-2.31 8 8 0 0 0 2.26-5.83 7.89 7.89 0 0 0-2.23-5.79zm-3 9.34a3.42 3.42 0 0 1-2.68 1.23 3.46 3.46 0 0 1-2.69-1.23 6.26 6.26 0 0 1 0-7.05 3.46 3.46 0 0 1 2.69-1.23 3.42 3.42 0 0 1 2.68 1.23 5.12 5.12 0 0 1 1.08 3.5 5.22 5.22 0 0 1-1.12 3.55zm8.27-11.29h4.09v5.66h5.9v-5.66h4.08v15.46h-4.08v-6.49h-5.9v6.49h-4.09v-15.46zm30.87 13.43a16.8 16.8 0 0 1-.19-3l.06-4.77a8.44 8.44 0 0 0-.55-3.66 4.07 4.07 0 0 0-1.88-1.64 9.81 9.81 0 0 0-4.08-.65 7.82 7.82 0 0 0-4.54 1.09 5.85 5.85 0 0 0-2.16 3.35l3.7.66a3 3 0 0 1 1-1.53 2.87 2.87 0 0 1 1.7-.44 3.5 3.5 0 0 1 2.21.51 2.17 2.17 0 0 1 .58 1.7v.38a22.31 22.31 0 0 1-4 1 13.78 13.78 0 0 0-3.25 1 4.08 4.08 0 0 0-1.75 1.57 4.4 4.4 0 0 0-.63 2.33 4.3 4.3 0 0 0 1.37 3.27 5.24 5.24 0 0 0 3.75 1.3 6.34 6.34 0 0 0 2.54-.52 7.31 7.31 0 0 0 2.23-1.54 4.87 4.87 0 0 1 .14.48c.15.53.29.92.39 1.19h4.05a8.64 8.64 0 0 1-.69-2.08zm-4.16-4.5a8.19 8.19 0 0 1-.16 2 2.58 2.58 0 0 1-1 1.36 3.57 3.57 0 0 1-2.11.72 2.23 2.23 0 0 1-1.63-.63 2 2 0 0 1-.64-1.49 1.72 1.72 0 0 1 .81-1.46 7.68 7.68 0 0 1 2.23-.71q1.71-.37 2.49-.63zm9.15-8.93h13.68v15.43h-4.08v-12.13h-5.54v7a8.1 8.1 0 0 1-.61 3.73 3.2 3.2 0 0 1-1.33 1.4 6.21 6.21 0 0 1-2.39.34 17.58 17.58 0 0 1-2.61-.34v-3h1.69c.56 0 .89-.18 1-.55a13.72 13.72 0 0 0 .19-3v-9zm31.96 8.29a3.89 3.89 0 0 0-2.15-1.5 15 15 0 0 0-3.69-.36h-4.1v-6.44h-4.1v15.44h8.77a7.75 7.75 0 0 0 4.6-1.13 3.91 3.91 0 0 0 1.53-3.37 4.38 4.38 0 0 0-.86-2.64zm-3.84 4a3.17 3.17 0 0 1-2.29.58h-3.82v-3.9h2.67a7.84 7.84 0 0 1 3.08.42 1.55 1.55 0 0 1 .87 1.53 2 2 0 0 1-.51 1.34zm7.85-12.29h4.08v5.66h5.9v-5.66h4.08v15.46h-4.08v-6.49h-5.9v6.49h-4.08v-15.46zm30.86 13.43a16.88 16.88 0 0 1-.19-3l.06-4.77a8.45 8.45 0 0 0-.55-3.66 4.07 4.07 0 0 0-1.88-1.64 9.82 9.82 0 0 0-4.08-.65 7.82 7.82 0 0 0-4.54 1.09 5.85 5.85 0 0 0-2.16 3.35l3.7.66a3 3 0 0 1 1-1.53 2.87 2.87 0 0 1 1.7-.44 3.5 3.5 0 0 1 2.21.51 2.17 2.17 0 0 1 .58 1.7v.38a22.31 22.31 0 0 1-4 1 13.78 13.78 0 0 0-3.25 1 4.08 4.08 0 0 0-1.75 1.57 4.4 4.4 0 0 0-.63 2.33 4.3 4.3 0 0 0 1.37 3.27 5.24 5.24 0 0 0 3.75 1.3 6.34 6.34 0 0 0 2.54-.52 7.31 7.31 0 0 0 2.23-1.54 4.8 4.8 0 0 1 .14.48c.15.53.29.92.39 1.19h4.05a8.66 8.66 0 0 1-.69-2.08zm-4.16-4.5a8.23 8.23 0 0 1-.16 2 2.58 2.58 0 0 1-1 1.36 3.57 3.57 0 0 1-2.11.72 2.23 2.23 0 0 1-1.63-.63 2 2 0 0 1-.64-1.49 1.71 1.71 0 0 1 .8-1.44 7.68 7.68 0 0 1 2.23-.71q1.71-.37 2.49-.63zm13.25-8.93a11.82 11.82 0 0 0-3.49.39 3.53 3.53 0 0 0-1.88 1.45 4.53 4.53 0 0 0-.71 2.57 4.45 4.45 0 0 0 1.07 3.07 3.89 3.89 0 0 0 2.79 1.31 4.93 4.93 0 0 0-2.26 2.21l-2.95 4.43h4.76l2.7-4.32.25-.3a4.6 4.6 0 0 1 1.38-1.45 4.19 4.19 0 0 1 1.95-.34h.38v6.41h4.08v-15.43zm4 6.62h-2.7a4.77 4.77 0 0 1-2.44-.47 1.68 1.68 0 0 1-.74-1.54 1.73 1.73 0 0 1 .65-1.53 4.15 4.15 0 0 1 2.28-.46h2.93zm16.3-6.62h4.08v6.32a2.14 2.14 0 0 0 1.45-.63 8.3 8.3 0 0 0 1-2.22 5.85 5.85 0 0 1 1.72-2.92 4.24 4.24 0 0 1 2.45-.64c.31 0 .85 0 1.62.07v2.7a4.38 4.38 0 0 0-2.07.3 4.18 4.18 0 0 0-1 1.91 3.84 3.84 0 0 1-2.06 2.63q1.94.54 3.28 3.38c0 .1.1.2.16.31l2.29 4.26h-4.4l-2-4.49a5.42 5.42 0 0 0-1.09-1.74 2.06 2.06 0 0 0-1.36-.39v6.58h-4.07v-15.43zm28.17 1.78a5.89 5.89 0 0 0-4.57-2.12 5.66 5.66 0 0 0-4.82 2.6v-2.27h-3.81v21.34h4.08v-7.74a7.82 7.82 0 0 0 2.19 1.74 5.18 5.18 0 0 0 2.32.51 5.89 5.89 0 0 0 4.59-2.15 8.83 8.83 0 0 0 1.89-6 8.55 8.55 0 0 0-1.87-5.91zm-3.27 9.65a3 3 0 0 1-2.37 1.15 3.15 3.15 0 0 1-2.51-1.25 6 6 0 0 1-1-3.86 5.18 5.18 0 0 1 1-3.44 3.12 3.12 0 0 1 2.48-1.16 3 3 0 0 1 2.41 1.18 5.62 5.62 0 0 1 1 3.63 5.92 5.92 0 0 1-1.01 3.75zm21.07 2a16.84 16.84 0 0 1-.19-3l.06-4.77a8.45 8.45 0 0 0-.55-3.66 4.07 4.07 0 0 0-1.88-1.64 9.81 9.81 0 0 0-4.08-.65 7.82 7.82 0 0 0-4.54 1.09 5.85 5.85 0 0 0-2.16 3.35l3.7.66a3 3 0 0 1 1-1.53 2.87 2.87 0 0 1 1.7-.44 3.5 3.5 0 0 1 2.2.51 2.17 2.17 0 0 1 .58 1.7v.38a22.31 22.31 0 0 1-4 1 13.77 13.77 0 0 0-3.25 1 4.08 4.08 0 0 0-1.75 1.57 4.4 4.4 0 0 0-.63 2.33 4.3 4.3 0 0 0 1.37 3.27 5.24 5.24 0 0 0 3.75 1.3 6.34 6.34 0 0 0 2.54-.52 7.31 7.31 0 0 0 2.24-1.54 4.9 4.9 0 0 1 .14.48c.15.53.29.92.39 1.19h4.05a8.67 8.67 0 0 1-.69-2.08zm-4.16-4.5a8.23 8.23 0 0 1-.16 2 2.58 2.58 0 0 1-1 1.36 3.57 3.57 0 0 1-2.11.72 2.23 2.23 0 0 1-1.63-.63 2 2 0 0 1-.64-1.49 1.71 1.71 0 0 1 .8-1.44 7.67 7.67 0 0 1 2.23-.71q1.71-.37 2.49-.63zm21.53-4.35l-4 .72a2.89 2.89 0 0 0-.92-1.81 2.81 2.81 0 0 0-1.87-.61 3.05 3.05 0 0 0-2.44 1.06 5.43 5.43 0 0 0-.91 3.54 6.28 6.28 0 0 0 .92 3.89 3 3 0 0 0 2.47 1.14 2.74 2.74 0 0 0 1.9-.67 4 4 0 0 0 1-2.28l4 .69a7.16 7.16 0 0 1-2.4 4.19 7.41 7.41 0 0 1-4.76 1.42 7.07 7.07 0 0 1-5.4-2.14 9.78 9.78 0 0 1 0-11.91 7.16 7.16 0 0 1 5.47-2.14 7.47 7.47 0 0 1 4.49 1.22 6.74 6.74 0 0 1 2.39 3.7zm15.85-2.63a7.71 7.71 0 0 0-5.75-2.28 8.41 8.41 0 0 0-4.11 1 6.89 6.89 0 0 0-2.85 2.92 8.36 8.36 0 0 0-1 3.95 9.39 9.39 0 0 0 1 4.52 6.6 6.6 0 0 0 2.93 2.82 9 9 0 0 0 4.05 1 7.64 7.64 0 0 0 5.7-2.31 8 8 0 0 0 2.26-5.83 7.89 7.89 0 0 0-2.23-5.79zm-3 9.34a3.42 3.42 0 0 1-2.68 1.23 3.46 3.46 0 0 1-2.69-1.23 6.26 6.26 0 0 1 0-7.05 3.46 3.46 0 0 1 2.69-1.23 3.42 3.42 0 0 1 2.68 1.23 5.11 5.11 0 0 1 1.08 3.5 5.21 5.21 0 0 1-1.12 3.55zm5.87-11.29h13.97v3.31h-4.94v12.15h-4.09v-12.15h-4.94v-3.31zm29.12 13.43a16.84 16.84 0 0 1-.19-3l.06-4.77a8.44 8.44 0 0 0-.55-3.66 4.07 4.07 0 0 0-1.88-1.64 9.81 9.81 0 0 0-4.08-.65 7.82 7.82 0 0 0-4.54 1.09 5.84 5.84 0 0 0-2.16 3.35l3.69.66a3 3 0 0 1 1-1.53 2.87 2.87 0 0 1 1.7-.44 3.5 3.5 0 0 1 2.21.51 2.17 2.17 0 0 1 .58 1.7v.38a22.3 22.3 0 0 1-4 1 13.78 13.78 0 0 0-3.25 1 4.08 4.08 0 0 0-1.75 1.57 4.4 4.4 0 0 0-.63 2.33 4.3 4.3 0 0 0 1.37 3.27 5.24 5.24 0 0 0 3.75 1.3 6.34 6.34 0 0 0 2.54-.52 7.32 7.32 0 0 0 2.24-1.54c0 .07.08.23.14.48.15.53.29.92.39 1.19h4.08a8.65 8.65 0 0 1-.72-2.08zm-4.16-4.5a8.2 8.2 0 0 1-.16 2 2.58 2.58 0 0 1-1 1.36 3.57 3.57 0 0 1-2.11.72 2.23 2.23 0 0 1-1.63-.63 2 2 0 0 1-.64-1.49 1.71 1.71 0 0 1 .8-1.44 7.68 7.68 0 0 1 2.23-.71q1.71-.37 2.49-.63z" fill="#328284" fill-rule="evenodd"/></svg>